{
  "accessors": [
    {
      "bufferView": 2,
      "componentType": 5126,
      "count": 65532,
      "max": [
        236.29983520507813,
        1172.456298828125,
        228.17965698242188
      ],
      "min": [
        -278.53271484375,
        -409.45599365234375,
        -293.1701965332031
      ],
      "type": "VEC3"
    },
    {
      "bufferView": 2,
      "byteOffset": 786384,
      "componentType": 5126,
      "count": 65532,
      "max": [
        0.9999533295631409,
        0.9999194741249084,
        1.0
      ],
      "min": [
        -0.9999683499336243,
        -0.9999703168869019,
        -0.9999797940254211
      ],
      "type": "VEC3"
    },
    {
      "bufferView": 1,
      "componentType": 5126,
      "count": 65532,
      "max": [
        0.9977549910545349,
        0.830357015132904
      ],
      "min": [
        0.0007440000190399587,
        0.0007489999989047647
      ],
      "type": "VEC2"
    },
    {
      "bufferView": 0,
      "componentType": 5125,
      "count": 307176,
      "type": "SCALAR"
    },
    {
      "bufferView": 2,
      "byteOffset": 1572768,
      "componentType": 5126,
      "count": 65532,
      "max": [
        280.10992431640625,
        1181.1962890625,
        227.20574951171875
      ],
      "min": [
        -285.29132080078125,
        -260.8946533203125,
        -313.12249755859375
      ],
      "type": "VEC3"
    },
    {
      "bufferView": 2,
      "byteOffset": 2359152,
      "componentType": 5126,
      "count": 65532,
      "max": [
        0.9999681115150452,
        0.9999700784683228,
        0.9999963641166687
      ],
      "min": [
        -0.9999969601631165,
        -0.9998565316200256,
        -0.9999995231628418
      ],
      "type": "VEC3"
    },
    {
      "bufferView": 1,
      "byteOffset": 524256,
      "componentType": 5126,
      "count": 65532,
      "max": [
        0.9965109825134277,
        0.9992560148239136
      ],
      "min": [
        0.0007440000190399587,
        0.03672200068831444
      ],
      "type": "VEC2"
    },
    {
      "bufferView": 0,
      "byteOffset": 1228704,
      "componentType": 5125,
      "count": 367419,
      "type": "SCALAR"
    },
    {
      "bufferView": 2,
      "byteOffset": 3145536,
      "componentType": 5126,
      "count": 14163,
      "max": [
        123.7537841796875,
        1154.33740234375,
        211.24603271484375
      ],
      "min": [
        -278.927001953125,
        -336.6463623046875,
        -256.8375549316406
      ],
      "type": "VEC3"
    },
    {
      "bufferView": 2,
      "byteOffset": 3315492,
      "componentType": 5126,
      "count": 14163,
      "max": [
        0.9998839497566223,
        0.9979187846183777,
        0.9999368190765381
      ],
      "min": [
        -0.99995356798172,
        -0.9979311227798462,
        -0.9998252987861633
      ],
      "type": "VEC3"
    },
    {
      "bufferView": 1,
      "byteOffset": 1048512,
      "componentType": 5126,
      "count": 14163,
      "max": [
        0.952148973941803,
        0.865327000617981
      ],
      "min": [
        0.2589290142059326,
        0.11069700121879578
      ],
      "type": "VEC2"
    },
    {
      "bufferView": 0,
      "byteOffset": 2698380,
      "componentType": 5125,
      "count": 75405,
      "type": "SCALAR"
    }
  ],
  "asset": {
    "extras": {
      "author": "Natural History Museum Vienna (https://sketchfab.com/NHMWien)",
      "license": "CC-BY-NC-4.0 (http://creativecommons.org/licenses/by-nc/4.0/)",
      "source": "https://sketchfab.com/3d-models/reconstruction-of-a-hallstatt-period-dress-531f37da3577449784c400ab232a6d65",
      "title": "Reconstruction of a Hallstatt Period Dress"
    },
    "generator": "Sketchfab-16.72.0",
    "version": "2.0"
  },
  "bufferViews": [
    {
      "buffer": 0,
      "byteLength": 3000000,
      "name": "floatBufferViews",
      "target": 34963
    },
    {
      "buffer": 0,
      "byteLength": 1161816,
      "byteOffset": 3000000,
      "byteStride": 8,
      "name": "floatBufferViews",
      "target": 34962
    },
    {
      "buffer": 0,
      "byteLength": 3485448,
      "byteOffset": 4161816,
      "byteStride": 12,
      "name": "floatBufferViews",
      "target": 34962
    }
  ],
  "buffers": [
    {
      "byteLength": 7647264,
      "uri": "scene.bin"
    }
  ],
  "extensionsRequired": [
    "KHR_materials_pbrSpecularGlossiness"
  ],
  "extensionsUsed": [
    "KHR_materials_pbrSpecularGlossiness"
  ],
  "images": [
    {
      "uri": "textures/material_0_diffuse.png"
    }
  ],
  "materials": [
    {
      "doubleSided": true,
      "extensions": {
        "KHR_materials_pbrSpecularGlossiness": {
          "diffuseFactor": [
            1.0,
            1.0,
            1.0,
            1.0
          ],
          "diffuseTexture": {
            "index": 0
          },
          "glossinessFactor": 0.2754742880170259,
          "specularFactor": [
            0.01,
            0.01,
            0.01
          ]
        }
      },
      "name": "material_0"
    }
  ],
  "meshes": [
    {
      "name": "Object_0",
      "primitives": [
        {
          "attributes": {
            "NORMAL": 1,
            "POSITION": 0,
            "TEXCOORD_0": 2
          },
          "indices": 3,
          "material": 0,
          "mode": 4
        }
      ]
    },
    {
      "name": "Object_1",
      "primitives": [
        {
          "attributes": {
            "NORMAL": 5,
            "POSITION": 4,
            "TEXCOORD_0": 6
          },
          "indices": 7,
          "material": 0,
          "mode": 4
        }
      ]
    },
    {
      "name": "Object_2",
      "primitives": [
        {
          "attributes": {
            "NORMAL": 9,
            "POSITION": 8,
            "TEXCOORD_0": 10
          },
          "indices": 11,
          "material": 0,
          "mode": 4
        }
      ]
    }
  ],
  "nodes": [
    {
      "children": [
        1
      ],
      "matrix": [
        0.6563799977302551,
        0.010860417038202117,
        0.7543522715568542,
        0.0,
        0.025553947314620018,
        -0.9996426701545715,
        -0.007843236438930257,
        0.0,
        0.7539975643157959,
        0.024424823001027253,
        -0.6564229726791382,
        0.0,
        0.0,
        0.0,
        0.0,
        1.0
      ],
      "name": "Sketchfab_model"
    },
    {
      "children": [
        2,
        3,
        4
      ],
      "name": "NHMW-Prae-Traunkirchen-Gewand-Rekonstruktion-lowres.obj.cleaner.materialmerger.gles"
    },
    {
      "mesh": 0,
      "name": "Object_2"
    },
    {
      "mesh": 1,
      "name": "Object_3"
    },
    {
      "mesh": 2,
      "name": "Object_4"
    }
  ],
  "samplers": [
    {
      "magFilter": 9729,
      "minFilter": 9987,
      "wrapS": 10497,
      "wrapT": 10497
    }
  ],
  "scene": 0,
  "scenes": [
    {
      "name": "Sketchfab_Scene",
      "nodes": [
        0
      ]
    }
  ],
  "textures": [
    {
      "sampler": 0,
      "source": 0
    }
  ]
}
