{
  "accessors": [
    {
      "bufferView": 2,
      "componentType": 5126,
      "count": 6319,
      "max": [
        45.837745666503906,
        19.237478256225586,
        -0.002058402169495821
      ],
      "min": [
        -45.41811752319336,
        -20.28832244873047,
        -90.73779296875
      ],
      "type": "VEC3"
    },
    {
      "bufferView": 2,
      "byteOffset": 75828,
      "componentType": 5126,
      "count": 6319,
      "max": [
        1.0,
        1.0,
        1.0
      ],
      "min": [
        -1.0,
        -1.0,
        -1.0
      ],
      "type": "VEC3"
    },
    {
      "bufferView": 3,
      "componentType": 5126,
      "count": 6319,
      "max": [
        1.0,
        1.0,
        1.0,
        1.0
      ],
      "min": [
        -1.0,
        -1.0,
        -1.0,
        1.0
      ],
      "type": "VEC4"
    },
    {
      "bufferView": 1,
      "componentType": 5126,
      "count": 6319,
      "max": [
        0.9943829774856567,
        0.9901840090751648
      ],
      "min": [
        0.08376500010490417,
        0.002606987953186035
      ],
      "type": "VEC2"
    },
    {
      "bufferView": 0,
      "componentType": 5125,
      "count": 33096,
      "type": "SCALAR"
    },
    {
      "bufferView": 2,
      "byteOffset": 151656,
      "componentType": 5126,
      "count": 6319,
      "max": [
        45.41868591308594,
        19.236392974853516,
        -0.08465280383825302
      ],
      "min": [
        -45.83717346191406,
        -20.289405822753906,
        -90.82038879394531
      ],
      "type": "VEC3"
    },
    {
      "bufferView": 2,
      "byteOffset": 227484,
      "componentType": 5126,
      "count": 6319,
      "max": [
        1.0,
        1.0,
        1.0
      ],
      "min": [
        -1.0,
        -1.0,
        -1.0
      ],
      "type": "VEC3"
    },
    {
      "bufferView": 3,
      "byteOffset": 101104,
      "componentType": 5126,
      "count": 6319,
      "max": [
        1.0,
        1.0,
        1.0,
        1.0
      ],
      "min": [
        -1.0,
        -1.0,
        -1.0,
        1.0
      ],
      "type": "VEC4"
    },
    {
      "bufferView": 1,
      "byteOffset": 50552,
      "componentType": 5126,
      "count": 6319,
      "max": [
        0.99338299036026,
        0.9901840090751648
      ],
      "min": [
        0.5309500098228455,
        0.07427000999450684
      ],
      "type": "VEC2"
    },
    {
      "bufferView": 0,
      "byteOffset": 132384,
      "componentType": 5125,
      "count": 33096,
      "type": "SCALAR"
    },
    {
      "bufferView": 2,
      "byteOffset": 303312,
      "componentType": 5126,
      "count": 6321,
      "max": [
        73.83477783203125,
        22.07192611694336,
        -0.012947742827236652
      ],
      "min": [
        -73.68994140625,
        -21.872173309326172,
        -164.15219116210938
      ],
      "type": "VEC3"
    },
    {
      "bufferView": 2,
      "byteOffset": 379164,
      "componentType": 5126,
      "count": 6321,
      "max": [
        1.0,
        1.0,
        1.0
      ],
      "min": [
        -1.0,
        -1.0,
        -1.0
      ],
      "type": "VEC3"
    },
    {
      "bufferView": 3,
      "byteOffset": 202208,
      "componentType": 5126,
      "count": 6321,
      "max": [
        1.0,
        1.0,
        1.0,
        1.0
      ],
      "min": [
        -1.0,
        -1.0,
        -1.0,
        1.0
      ],
      "type": "VEC4"
    },
    {
      "bufferView": 1,
      "byteOffset": 101104,
      "componentType": 5126,
      "count": 6321,
      "max": [
        0.9943259954452515,
        0.9901840090751648
      ],
      "min": [
        0.5309500098228455,
        0.14961004257202148
      ],
      "type": "VEC2"
    },
    {
      "bufferView": 0,
      "byteOffset": 264768,
      "componentType": 5125,
      "count": 33096,
      "type": "SCALAR"
    },
    {
      "bufferView": 2,
      "byteOffset": 455016,
      "componentType": 5126,
      "count": 65532,
      "max": [
        257.9623107910156,
        601.1036987304688,
        103.05239868164063
      ],
      "min": [
        -257.9623107910156,
        -14.644689559936523,
        -107.39939880371094
      ],
      "type": "VEC3"
    },
    {
      "bufferView": 2,
      "byteOffset": 1241400,
      "componentType": 5126,
      "count": 65532,
      "max": [
        1.0,
        1.0,
        1.0
      ],
      "min": [
        -1.0,
        -1.0,
        -1.0
      ],
      "type": "VEC3"
    },
    {
      "bufferView": 3,
      "byteOffset": 303344,
      "componentType": 5126,
      "count": 65532,
      "max": [
        1.0,
        1.0,
        1.0,
        1.0
      ],
      "min": [
        -1.0,
        -1.0,
        -1.0,
        -1.0
      ],
      "type": "VEC4"
    },
    {
      "bufferView": 1,
      "byteOffset": 151672,
      "componentType": 5126,
      "count": 65532,
      "max": [
        0.9869089722633362,
        0.9898179769515991
      ],
      "min": [
        0.0019529999699443579,
        0.002516031265258789
      ],
      "type": "VEC2"
    },
    {
      "bufferView": 0,
      "byteOffset": 397152,
      "componentType": 5125,
      "count": 346875,
      "type": "SCALAR"
    },
    {
      "bufferView": 2,
      "byteOffset": 2027784,
      "componentType": 5126,
      "count": 31915,
      "max": [
        266.5389099121094,
        359.1391906738281,
        111.62899780273438
      ],
      "min": [
        -266.5389099121094,
        -14.644689559936523,
        -111.62000274658203
      ],
      "type": "VEC3"
    },
    {
      "bufferView": 2,
      "byteOffset": 2410764,
      "componentType": 5126,
      "count": 31915,
      "max": [
        1.0,
        1.0,
        1.0
      ],
      "min": [
        -1.0,
        -1.0,
        -1.0
      ],
      "type": "VEC3"
    },
    {
      "bufferView": 3,
      "byteOffset": 1351856,
      "componentType": 5126,
      "count": 31915,
      "max": [
        1.0,
        1.0,
        1.0,
        1.0
      ],
      "min": [
        -1.0,
        -1.0,
        -1.0,
        -1.0
      ],
      "type": "VEC4"
    },
    {
      "bufferView": 1,
      "byteOffset": 675928,
      "componentType": 5126,
      "count": 31915,
      "max": [
        0.9775599837303162,
        0.9980469942092896
      ],
      "min": [
        0.0024270000867545605,
        0.0019530057907104492
      ],
      "type": "VEC2"
    },
    {
      "bufferView": 0,
      "byteOffset": 1784652,
      "componentType": 5125,
      "count": 162603,
      "type": "SCALAR"
    },
    {
      "bufferView": 2,
      "byteOffset": 2793744,
      "componentType": 5126,
      "count": 2359,
      "max": [
        102.5899658203125,
        135.55319213867188,
        22.855220794677734
      ],
      "min": [
        -102.59363555908203,
        -179.2331085205078,
        -17.058849334716797
      ],
      "type": "VEC3"
    },
    {
      "bufferView": 2,
      "byteOffset": 2822052,
      "componentType": 5126,
      "count": 2359,
      "max": [
        1.0,
        1.0,
        1.0
      ],
      "min": [
        -1.0,
        -0.997199535369873,
        -0.9971988201141357
      ],
      "type": "VEC3"
    },
    {
      "bufferView": 3,
      "byteOffset": 1862496,
      "componentType": 5126,
      "count": 2359,
      "max": [
        1.0,
        1.0,
        1.0,
        1.0
      ],
      "min": [
        -1.0,
        -0.9996187090873718,
        -0.9998102784156799,
        1.0
      ],
      "type": "VEC4"
    },
    {
      "bufferView": 1,
      "byteOffset": 931248,
      "componentType": 5126,
      "count": 2359,
      "max": [
        0.9941509962081909,
        0.9715970158576965
      ],
      "min": [
        0.00507699977606535,
        0.4712560176849365
      ],
      "type": "VEC2"
    },
    {
      "bufferView": 0,
      "byteOffset": 2435064,
      "componentType": 5125,
      "count": 9378,
      "type": "SCALAR"
    }
  ],
  "asset": {
    "extras": {
      "author": "eucocker (https://sketchfab.com/eucocker)",
      "license": "CC-BY-NC-4.0 (http://creativecommons.org/licenses/by-nc/4.0/)",
      "source": "https://sketchfab.com/3d-models/dressing-table-7fc3374cf42a46639c858466c73e0fcf",
      "title": "Dressing Table"
    },
    "generator": "Sketchfab-15.31.0",
    "version": "2.0"
  },
  "bufferViews": [
    {
      "buffer": 0,
      "byteLength": 2472576,
      "name": "floatBufferViews",
      "target": 34963
    },
    {
      "buffer": 0,
      "byteLength": 950120,
      "byteOffset": 2472576,
      "byteStride": 8,
      "name": "floatBufferViews",
      "target": 34962
    },
    {
      "buffer": 0,
      "byteLength": 2850360,
      "byteOffset": 3422696,
      "byteStride": 12,
      "name": "floatBufferViews",
      "target": 34962
    },
    {
      "buffer": 0,
      "byteLength": 1900240,
      "byteOffset": 6273056,
      "byteStride": 16,
      "name": "floatBufferViews",
      "target": 34962
    }
  ],
  "buffers": [
    {
      "byteLength": 8173296,
      "uri": "scene.bin"
    }
  ],
  "images": [
    {
      "uri": "textures/default_baseColor.png"
    },
    {
      "uri": "textures/default_metallicRoughness.png"
    },
    {
      "uri": "textures/default_normal.png"
    }
  ],
  "materials": [
    {
      "doubleSided": true,
      "name": "default",
      "normalTexture": {
        "index": 2
      },
      "pbrMetallicRoughness": {
        "baseColorTexture": {
          "index": 0
        },
        "metallicRoughnessTexture": {
          "index": 1
        }
      }
    }
  ],
  "meshes": [
    {
      "name": "1_default_0",
      "primitives": [
        {
          "attributes": {
            "NORMAL": 1,
            "POSITION": 0,
            "TANGENT": 2,
            "TEXCOORD_0": 3
          },
          "indices": 4,
          "material": 0,
          "mode": 4
        }
      ]
    },
    {
      "name": "2_default_0",
      "primitives": [
        {
          "attributes": {
            "NORMAL": 6,
            "POSITION": 5,
            "TANGENT": 7,
            "TEXCOORD_0": 8
          },
          "indices": 9,
          "material": 0,
          "mode": 4
        }
      ]
    },
    {
      "name": "3_default_0",
      "primitives": [
        {
          "attributes": {
            "NORMAL": 11,
            "POSITION": 10,
            "TANGENT": 12,
            "TEXCOORD_0": 13
          },
          "indices": 14,
          "material": 0,
          "mode": 4
        }
      ]
    },
    {
      "name": "0_default_0",
      "primitives": [
        {
          "attributes": {
            "NORMAL": 16,
            "POSITION": 15,
            "TANGENT": 17,
            "TEXCOORD_0": 18
          },
          "indices": 19,
          "material": 0,
          "mode": 4
        }
      ]
    },
    {
      "name": "0_default_0",
      "primitives": [
        {
          "attributes": {
            "NORMAL": 21,
            "POSITION": 20,
            "TANGENT": 22,
            "TEXCOORD_0": 23
          },
          "indices": 24,
          "material": 0,
          "mode": 4
        }
      ]
    },
    {
      "name": "0_2_default_0",
      "primitives": [
        {
          "attributes": {
            "NORMAL": 26,
            "POSITION": 25,
            "TANGENT": 27,
            "TEXCOORD_0": 28
          },
          "indices": 29,
          "material": 0,
          "mode": 4
        }
      ]
    }
  ],
  "nodes": [
    {
      "children": [
        1
      ],
      "matrix": [
        1.0,
        0.0,
        0.0,
        0.0,
        0.0,
        2.220446049250313e-16,
        -1.0,
        0.0,
        0.0,
        1.0,
        2.220446049250313e-16,
        0.0,
        0.0,
        0.0,
        0.0,
        1.0
      ],
      "name": "Sketchfab_model"
    },
    {
      "children": [
        2
      ],
      "matrix": [
        0.009999999776482582,
        0.0,
        0.0,
        0.0,
        0.0,
        0.0,
        0.009999999776482582,
        0.0,
        0.0,
        -0.009999999776482582,
        0.0,
        0.0,
        0.0,
        0.0,
        0.0,
        1.0
      ],
      "name": "989a31ee9a784d219ca53a74a706d6ec.fbx"
    },
    {
      "children": [
        3
      ],
      "name": "RootNode"
    },
    {
      "children": [
        4,
        6,
        8,
        10,
        13
      ],
      "name": "Tfble9_2_obj"
    },
    {
      "children": [
        5
      ],
      "matrix": [
        1.0,
        0.0,
        0.0,
        0.0,
        0.0,
        1.0,
        0.0,
        0.0,
        0.0,
        0.0,
        1.0,
        0.0,
        -106.30028533935547,
        333.0447082519531,
        4.845404624938965,
        1.0
      ],
      "name": "1"
    },
    {
      "mesh": 0,
      "name": "1_default_0"
    },
    {
      "children": [
        7
      ],
      "matrix": [
        1.0,
        0.0,
        0.0,
        0.0,
        0.0,
        1.0,
        0.0,
        0.0,
        0.0,
        0.0,
        1.0,
        0.0,
        106.29971313476563,
        333.0458068847656,
        4.927999019622803,
        1.0
      ],
      "name": "2"
    },
    {
      "mesh": 1,
      "name": "2_default_0"
    },
    {
      "children": [
        9
      ],
      "matrix": [
        1.0,
        0.0,
        0.0,
        0.0,
        0.0,
        1.0,
        0.0,
        0.0,
        0.0,
        0.0,
        1.0,
        0.0,
        0.0,
        271.4382629394531,
        71.38716125488281,
        1.0
      ],
      "name": "3"
    },
    {
      "mesh": 2,
      "name": "3_default_0"
    },
    {
      "children": [
        11,
        12
      ],
      "name": "0"
    },
    {
      "mesh": 3,
      "name": "0_default_0"
    },
    {
      "mesh": 4,
      "name": "0_default_0"
    },
    {
      "children": [
        14
      ],
      "matrix": [
        1.0,
        0.0,
        0.0,
        0.0,
        0.0,
        1.0,
        0.0,
        0.0,
        0.0,
        0.0,
        1.0,
        0.0,
        0.0018328551668673754,
        542.4580078125,
        -73.56796264648438,
        1.0
      ],
      "name": "0_2"
    },
    {
      "mesh": 5,
      "name": "0_2_default_0"
    }
  ],
  "samplers": [
    {
      "magFilter": 9729,
      "minFilter": 9987,
      "wrapS": 10497,
      "wrapT": 10497
    }
  ],
  "scene": 0,
  "scenes": [
    {
      "name": "Sketchfab_Scene",
      "nodes": [
        0
      ]
    }
  ],
  "textures": [
    {
      "sampler": 0,
      "source": 0
    },
    {
      "sampler": 0,
      "source": 1
    },
    {
      "sampler": 0,
      "source": 2
    }
  ]
}
